<svg width="400" height="118" viewBox="0 0 400 118" fill="none" xmlns="http://www.w3.org/2000/svg">
<path fill-rule="evenodd" clip-rule="evenodd" d="M215.169 82.3399C214.367 83.2489 213.71 84.0349 213.71 84.0869C213.71 84.4459 216.841 84.1579 217.21 83.7649C217.767 83.1729 218.929 83.1759 219.551 83.7719C219.965 84.1679 220.085 84.1919 221.431 84.1469L222.87 84.0979L221.358 82.3899L219.846 80.6809L218.237 80.6849L216.627 80.6879L215.169 82.3399ZM324.395 80.7549C324.435 80.7949 325.479 81.6179 326.714 82.5839L328.96 84.3389L329.992 84.3439C331.376 84.3499 331.375 84.3449 329.76 82.3899L328.349 80.6809H326.335C325.228 80.6809 324.354 80.7139 324.395 80.7549ZM334.316 81.8059C333.816 82.4249 333.178 83.2029 332.898 83.5339C332.251 84.3009 332.313 84.3479 333.975 84.3479C335.2 84.3479 335.406 84.3019 335.847 83.9309C336.212 83.6239 336.536 83.5149 337.08 83.5149C337.653 83.5149 337.907 83.6079 338.21 83.9309C338.579 84.3239 341.377 84.6079 341.377 84.2529C341.377 84.2009 340.734 83.3759 339.947 82.4199L338.517 80.6809H336.871H335.225L334.316 81.8059ZM189.544 86.5129C186.031 86.6459 185.279 86.8969 183.743 88.4529C179.674 92.5719 179.537 104.622 183.51 108.869C185.796 111.313 186.679 111.51 195.335 111.513L202.21 111.515V108.123V104.732L200.434 104.623C199.458 104.564 196.193 104.515 193.179 104.515C187.221 104.515 186.992 104.484 186.151 103.577C184.627 101.933 184.486 96.4519 185.914 94.3529C186.827 93.0119 187.047 92.9889 200.169 92.8669L202.21 92.8479V89.5979V86.3479L197.252 86.3789C194.525 86.3949 191.056 86.4559 189.544 86.5129ZM233.71 98.9309V111.515H235.794H237.877V103.765C237.877 99.5019 237.936 96.0149 238.009 96.0149C238.081 96.0149 241.496 99.5019 245.598 103.765L253.055 111.515H254.716H256.377V98.9309V86.3479H254.127H251.877V93.9309C251.877 98.1019 251.835 101.515 251.784 101.515C251.687 101.515 247.133 96.8749 240.704 90.2279L236.96 86.3569L235.335 86.3529L233.71 86.3479V98.9309ZM266.96 86.5049C262.162 86.6619 260.284 88.5929 259.053 94.6369C257.564 101.941 259.686 108.417 264.321 110.714L265.768 111.431L273.489 111.478L281.21 111.524V103.518V95.5109L274.002 95.5549L266.794 95.5979V98.8479V102.098L271.843 102.142L276.892 102.186L276.843 103.392L276.794 104.598L271.294 104.539C265.469 104.477 265.141 104.435 264.427 103.659C262.645 101.723 262.577 95.8229 264.315 93.9549C265.106 93.1029 265.563 93.0149 269.163 93.0139C270.977 93.0139 274.429 92.9649 276.835 92.9039L281.21 92.7949V89.5709V86.3479L275.502 86.3799C272.362 86.3979 268.519 86.4539 266.96 86.5049ZM299.044 98.8109C299.044 105.696 299.1 111.359 299.169 111.397C299.237 111.434 302.851 111.406 307.199 111.334L315.104 111.202L316.324 110.599C322.526 107.534 323.623 92.8129 318.025 87.7799C316.612 86.5089 316.692 86.5189 307.335 86.3999L299.044 86.2939V98.8109ZM352.251 98.8899L352.294 111.431L354.419 111.478L356.544 111.525V103.863C356.544 99.6489 356.605 96.1629 356.681 96.1159C356.756 96.0699 360.15 99.5099 364.222 103.761L371.627 111.489L373.252 111.502L374.877 111.515V98.9309V86.3479H372.71H370.544V93.9309C370.544 98.1019 370.502 101.515 370.451 101.515C370.342 101.515 369.995 101.164 362.627 93.5939C359.51 90.3929 356.632 87.4519 356.231 87.0599L355.502 86.3479H353.855H352.208L352.251 98.8899ZM385.627 86.5049C382.399 86.6109 381.937 86.7589 380.631 88.1029C377.103 91.7329 376.2 101.516 378.911 106.728C379.86 108.551 381.126 109.791 382.971 110.706L384.435 111.431L392.156 111.478L399.877 111.524V103.518V95.5109L392.669 95.5549L385.46 95.5979V98.8479V102.098L390.509 102.142L395.558 102.186L395.509 103.392L395.46 104.598L389.96 104.539C386.035 104.497 384.315 104.42 383.953 104.27C381.379 103.205 380.754 96.3569 383.011 93.9519C383.814 93.0969 384.236 93.0149 387.83 93.0139C389.643 93.0139 393.096 92.9649 395.502 92.9039L399.877 92.7949V89.5709V86.3479L394.169 86.3799C391.029 86.3979 387.185 86.4539 385.627 86.5049ZM209.921 86.8669C203.999 89.1439 203.291 105.112 208.899 109.912C210.373 111.173 210.56 111.198 218.189 111.145L224.96 111.098L225.917 110.628C227.429 109.886 228.731 108.454 229.706 106.46C232.834 100.066 230.826 89.0969 226.127 86.9059L225.294 86.5179L218.044 86.5249C211.188 86.5319 210.746 86.5499 209.921 86.8669ZM328.827 86.7549C321.767 89.2729 321.986 108.166 329.106 110.826C330.674 111.412 343.205 111.308 344.432 110.698C345.512 110.162 346.963 108.813 347.725 107.636C351.542 101.743 349.827 89.4289 344.844 86.9459L343.978 86.5149L336.719 86.5219C331.047 86.5279 329.322 86.5789 328.827 86.7549ZM315.184 93.3109C317.739 94.4859 317.96 102.255 315.49 104.083C315.053 104.407 304.035 104.847 303.502 104.562C303.433 104.525 303.377 103.974 303.377 103.338V102.181H306.627H309.877V98.8479V95.5149H306.627H303.377V94.1739V92.8329L309.002 92.9439C313.53 93.0329 314.736 93.1049 315.184 93.3109ZM224.819 93.3359C227.593 94.5959 227.508 102.798 224.706 104.227C223.763 104.708 211.785 104.589 211.097 104.091C208.461 102.186 208.904 94.3209 211.71 93.2019C212.568 92.8599 224.029 92.9769 224.819 93.3359ZM343.257 93.2439C346.213 94.5089 346.226 103.05 343.274 104.284C342.472 104.619 330.949 104.621 330.163 104.286C327.246 103.043 327.218 94.7969 330.127 93.3469C330.989 92.9169 342.286 92.8289 343.257 93.2439ZM216.975 113.028C216.738 113.31 216.506 113.722 216.46 113.944C216.414 114.166 216.339 114.531 216.293 114.754C215.732 117.473 218.747 118.985 219.7 116.462C220.62 114.025 218.444 111.282 216.975 113.028Z" fill="#00A1E4"/>
<path fill-rule="evenodd" clip-rule="evenodd" d="M47.6359 82.885C47.4939 83.089 47.3769 83.351 47.3769 83.468C47.3769 83.81 47.8439 83.713 47.9599 83.348C48.0189 83.165 48.1379 83.015 48.2269 83.015C48.5569 83.015 48.5559 83.504 48.2229 84.156C47.7689 85.047 48.0509 85.189 48.6069 84.349C49.4649 83.052 48.5189 81.625 47.6359 82.885ZM67.4789 84.046C67.2499 84.43 67.1009 84.805 67.1469 84.88C67.3099 85.143 67.8399 85.009 68.0939 84.64L68.3519 84.265L68.6239 84.64C69.2719 85.534 69.7309 85.036 69.2069 84.008C68.7209 83.056 68.0609 83.071 67.4789 84.046ZM134.619 83.806C134.974 85.26 137.21 85.224 137.21 83.765C137.21 83.225 136.897 83.234 136.457 83.786C136.058 84.286 135.467 84.229 135.291 83.673C135.116 83.121 134.483 83.247 134.619 83.806ZM34.7929 84.183C34.2879 85.303 34.9579 85.3 35.8599 84.178L36.3929 83.515H35.7429C35.1469 83.515 35.0699 83.569 34.7929 84.183ZM88.9599 84.183C88.4549 85.302 89.1619 85.295 90.0509 84.172L90.5719 83.515H89.9159C89.3129 83.515 89.2369 83.567 88.9599 84.183ZM158.14 83.64C158.023 83.756 157.544 84.811 157.544 84.952C157.544 85.402 158.483 84.752 159.197 83.806C159.431 83.498 158.44 83.342 158.14 83.64ZM22.6429 85.856C21.7179 86.669 21.6269 87.154 21.6279 91.265C21.6299 96.126 22.0219 97.037 24.1269 97.081C25.8419 97.117 26.6439 96.123 26.7359 93.848L26.7939 92.431L25.7519 92.382L24.7099 92.332V93.558C24.7099 94.885 24.4759 95.457 24.0439 95.185C23.4169 94.791 23.6309 87.123 24.2649 87.213C24.6049 87.261 24.6299 87.366 24.6749 88.897L24.7229 90.53L25.7579 90.481L26.7939 90.431L26.7379 88.765C26.6519 86.161 26.0369 85.348 24.1549 85.348C23.3529 85.348 23.1409 85.419 22.6429 85.856ZM40.8509 85.593C39.7239 86.229 39.6269 86.67 39.6269 91.181C39.6269 96.341 39.9419 97.086 42.1269 97.086C43.8109 97.086 44.5399 96.154 44.6719 93.829L44.7579 92.331L43.6919 92.381L42.6269 92.431L42.5789 93.708C42.5279 95.048 42.2729 95.575 41.8959 95.121C41.4819 94.622 41.7289 87.274 42.1629 87.212C42.5189 87.162 42.5329 87.215 42.5789 88.796L42.6269 90.431L43.6909 90.482L44.7549 90.532L44.6769 88.815C44.5959 87.029 44.3919 86.382 43.7179 85.772C43.2419 85.341 41.4899 85.232 40.8509 85.593ZM66.9969 85.644C65.2079 86.752 65.2189 95.6 67.0099 96.785C68.1469 97.536 69.7689 97.051 70.4489 95.755C70.9989 94.707 70.9739 87.602 70.4169 86.56C69.7959 85.397 68.1199 84.948 66.9969 85.644ZM78.7599 85.675C77.7209 86.308 77.6329 86.688 77.5739 90.788C77.5149 94.873 77.6109 95.534 78.3909 96.422C79.1989 97.342 80.1619 97.356 80.8899 96.457L81.1669 96.115L81.2829 96.482C81.3769 96.777 81.5259 96.848 82.0549 96.848H82.7099V93.848V90.848H81.3769H80.0439V91.603C80.0439 92.121 80.1219 92.389 80.2939 92.454C80.6279 92.583 80.6529 94.883 80.3229 95.157C79.7969 95.594 79.7099 95.028 79.7099 91.143C79.7099 87.807 79.7429 87.325 79.9769 87.235C80.3769 87.082 80.5379 87.483 80.5409 88.64L80.5439 89.681H81.6269H82.7099L82.7059 88.806C82.6939 86.012 80.7439 84.465 78.7599 85.675ZM93.5029 85.61C91.6949 86.59 91.6749 95.61 93.4789 96.792C94.5639 97.503 96.1369 97.065 96.8489 95.854L97.2939 95.098V91.181C97.2939 86.837 97.1709 86.29 96.0439 85.625C95.4629 85.282 94.1219 85.274 93.5029 85.61ZM114.074 85.686C112.975 86.357 112.848 86.988 112.908 91.51C112.957 95.226 112.983 95.522 113.304 95.951C115.118 98.378 117.779 97.19 117.995 93.857L118.093 92.348H116.985H115.877V93.661C115.877 95.047 115.63 95.604 115.229 95.121C114.842 94.654 115.059 87.265 115.46 87.265C115.768 87.265 115.797 87.392 115.841 88.89L115.889 90.515H116.99H118.092L118.004 88.794C117.849 85.758 116.154 84.418 114.074 85.686ZM122.849 85.633C121.741 86.32 121.627 86.847 121.627 91.265C121.627 96.331 121.951 97.086 124.127 97.086C125.856 97.086 126.602 96.162 126.685 93.92L126.743 92.348H125.748H124.753L124.675 93.697C124.622 94.607 124.521 95.094 124.362 95.194C123.819 95.536 123.71 94.891 123.713 91.358C123.715 87.624 123.768 87.181 124.21 87.181C124.594 87.181 124.705 87.64 124.708 89.223L124.71 90.515H125.71H126.71V88.926C126.71 85.922 124.888 84.368 122.849 85.633ZM150.527 85.729C149.844 86.188 149.565 86.914 149.554 88.265C149.54 89.922 149.751 90.372 151.218 91.815L152.544 93.12V94.047C152.544 95.79 151.728 95.709 151.587 93.952L151.498 92.848H150.501H149.505L149.625 94.14C150.012 98.279 154.368 98.353 154.519 94.223C154.601 91.987 154.448 91.595 152.959 90.223C151.67 89.035 151.389 88.489 151.611 87.604C151.822 86.762 152.377 87.06 152.377 88.015V88.848H153.396H154.415L154.348 87.663C154.23 85.575 152.247 84.572 150.527 85.729ZM156.462 85.71C154.756 87.052 154.85 95.481 156.585 96.745C157.631 97.508 159.227 97.075 159.96 95.831C160.369 95.136 160.558 88.471 160.205 87.162C159.763 85.522 157.712 84.726 156.462 85.71ZM162.384 85.785C160.69 87.21 160.741 95.654 162.451 96.774C164.317 97.997 166.254 96.58 166.351 93.92L166.409 92.348H165.393H164.377V93.501C164.377 95.186 163.749 95.999 163.481 94.661C163.11 92.807 163.41 87.181 163.88 87.181C164.293 87.181 164.377 87.507 164.377 89.112V90.515H165.377H166.377V88.901C166.377 86.293 165.697 85.348 163.822 85.348C163.073 85.348 162.806 85.429 162.384 85.785ZM2.54395 86.598V87.681H3.20995H3.87695V92.265V96.848H4.95995H6.04394V92.265V87.681H6.70995H7.37695V86.598V85.515H4.95995H2.54395V86.598ZM8.54295 85.89C8.54195 86.096 8.31794 88.59 8.04394 91.431C7.76994 94.273 7.54495 96.654 7.54495 96.723C7.54395 96.792 8.03095 96.848 8.62695 96.848H9.70995L9.71295 96.223C9.71895 94.478 10.5909 94.172 10.7799 95.848L10.8939 96.848H11.9689C12.5599 96.848 13.0439 96.792 13.0439 96.723C13.0459 96.461 11.8549 86.247 11.7819 85.89C11.7079 85.533 11.6279 85.515 10.1239 85.515C8.59694 85.515 8.54395 85.527 8.54295 85.89ZM13.5439 91.181V96.848H14.6269H15.7099V94.619V92.391L16.5169 92.284C17.8909 92.102 18.1159 91.71 18.1839 89.381C18.2829 85.992 17.9129 85.516 15.1689 85.515H13.5439V91.181ZM27.7099 91.181V96.848H28.7939H29.8769V94.431C29.8769 92.126 29.8919 92.015 30.2099 92.015C30.5279 92.015 30.5439 92.126 30.5439 94.431V96.848H31.6269H32.7099V91.181V85.515H31.6269H30.5439V87.61C30.5439 89.516 30.5169 89.701 30.2519 89.65C29.9959 89.601 29.9549 89.342 29.9139 87.554L29.8669 85.515H28.7889H27.7099V91.181ZM33.8209 85.626C33.7599 85.687 33.7099 88.237 33.7099 91.292V96.848H34.7939H35.8769V91.181V85.515H34.9049C34.3699 85.515 33.8829 85.565 33.8209 85.626ZM45.5759 90.39C45.6389 96.441 45.8879 97.086 48.1569 97.086C50.3299 97.086 50.5429 96.488 50.5429 90.39L50.5439 85.515H49.5439H48.5439V90.004C48.5439 94.712 48.4219 95.754 47.9479 95.108C47.7559 94.846 47.7099 93.899 47.7099 90.149V85.515H46.6179H45.5249L45.5759 90.39ZM52.1319 86.056C52.0809 86.354 51.8319 88.907 51.5789 91.73L51.1189 96.862L52.2059 96.813L53.2939 96.765L53.3439 95.806C53.3929 94.868 53.4039 94.848 53.8849 94.848C54.3749 94.848 54.3769 94.852 54.3769 95.848V96.848H55.5399H56.7019L56.6199 96.39C56.5149 95.801 55.3769 86.058 55.3769 85.748C55.3769 85.564 55.0409 85.515 53.8009 85.515H52.2249L52.1319 86.056ZM59.8769 91.181V96.848H60.8719H61.8679L61.9139 94.473C61.9589 92.153 61.9689 92.097 62.3349 92.045C62.7099 91.992 62.7099 91.997 62.7099 94.42V96.848H63.7939H64.8769V91.181V85.515H63.7939H62.7099V87.505C62.7099 89.499 62.6359 89.77 62.1419 89.581C61.9199 89.496 61.8769 89.155 61.8769 87.497V85.515H60.8769H59.8769V91.181ZM71.8209 85.626C71.7599 85.687 71.7099 88.237 71.7099 91.292V96.848H72.8769H74.0439V91.181V85.515H72.9879C72.4079 85.515 71.8829 85.565 71.8209 85.626ZM83.7099 91.181V96.848H84.7099H85.7099V91.181V85.515H84.7099H83.7099V91.181ZM87.3769 85.614C87.3769 85.807 86.3759 95.443 86.2839 96.14L86.1899 96.848H87.3669H88.5439V95.848V94.848H89.0439H89.5439V95.856V96.863L90.6689 96.814L91.7939 96.765L91.7429 96.098C91.7149 95.731 91.4339 93.229 91.1179 90.537C90.8019 87.846 90.5439 85.614 90.5439 85.579C90.5439 85.544 89.8309 85.515 88.9599 85.515C88.0889 85.515 87.3769 85.559 87.3769 85.614ZM101.044 91.167V96.848H102.869C106.017 96.848 105.945 96.966 106.012 91.681C106.086 85.82 105.993 85.638 102.865 85.542L101.044 85.485V91.167ZM106.905 90.39C106.973 96.43 107.225 97.079 109.498 97.084C111.647 97.089 111.859 96.491 111.869 90.39L111.877 85.515H110.877H109.877V90.084C109.877 94.73 109.84 95.181 109.46 95.181C109.081 95.181 109.044 94.73 109.044 90.084V85.515H107.947H106.851L106.905 90.39ZM127.71 91.181V96.848H128.794H129.877V94.431C129.877 92.126 129.892 92.015 130.21 92.015C130.528 92.015 130.544 92.126 130.544 94.431V96.848H131.627H132.71V91.181V85.515H131.632H130.554L130.507 87.556C130.469 89.239 130.416 89.598 130.21 89.598C130.004 89.598 129.952 89.239 129.914 87.556L129.867 85.515H128.789H127.71V91.181ZM134.31 85.89C134.269 86.096 134.038 88.365 133.796 90.931C133.554 93.498 133.314 95.879 133.262 96.223L133.168 96.848H134.264H135.36L135.474 95.848C135.663 94.172 136.535 94.478 136.541 96.223L136.544 96.848H137.649H138.754L138.659 96.056C138.608 95.621 138.319 93.071 138.019 90.39L137.472 85.515H135.928C134.459 85.515 134.38 85.533 134.31 85.89ZM139.21 91.181V96.848H140.127H141.044V93.32C141.044 91.38 141.089 89.837 141.143 89.892C141.213 89.962 141.993 95.97 142.041 96.806C142.05 96.963 143.377 96.811 143.377 96.653C143.377 96.151 144.075 89.928 144.138 89.865C144.178 89.825 144.21 91.38 144.21 93.32V96.848H145.127H146.044V91.181V85.515H144.648H143.253L143.157 86.14C143.105 86.483 143.01 87.515 142.948 88.431C142.85 89.87 142.573 91.187 142.545 90.348C142.541 90.21 142.427 89.123 142.292 87.931C142.157 86.74 142.046 85.708 142.045 85.64C142.044 85.571 141.406 85.515 140.627 85.515H139.21V91.181ZM68.6719 91.079C68.7179 94.992 68.6329 95.602 68.1049 95.163C67.9249 95.014 67.8769 94.21 67.8769 91.341C67.8769 87.514 67.9209 87.133 68.3559 87.217C68.5949 87.263 68.6319 87.718 68.6719 91.079ZM95.1329 87.911C95.2819 88.904 95.1609 94.878 94.9869 95.148C94.8789 95.314 94.7929 95.319 94.6119 95.169C94.3639 94.963 94.2469 87.534 94.4879 87.292C94.7819 86.999 95.0319 87.239 95.1329 87.911ZM158.21 91.181C158.21 94.981 158.195 95.181 157.898 95.181C157.452 95.181 157.377 94.607 157.377 91.181C157.377 87.755 157.452 87.181 157.898 87.181C158.195 87.181 158.21 87.381 158.21 91.181ZM16.2819 87.61C16.8119 88.141 16.5489 90.348 15.9539 90.348C15.7579 90.348 15.7099 90.054 15.7099 88.848C15.7099 87.335 15.8039 87.132 16.2819 87.61ZM103.677 87.548C103.82 87.691 103.877 88.733 103.877 91.181C103.877 94.638 103.816 95.015 103.26 95.015C103.089 95.015 103.044 94.235 103.044 91.292C103.044 87.298 103.099 86.97 103.677 87.548ZM10.5899 91.723C10.6709 92.837 10.6679 92.848 10.2509 92.848H9.82894L9.94194 91.14C10.1689 87.7 10.3079 87.825 10.5899 91.723ZM54.1059 91.056L54.2209 92.848H53.7769C53.3459 92.848 53.3369 92.827 53.4309 92.056C53.4849 91.621 53.5819 90.627 53.6469 89.848C53.7909 88.118 53.9429 88.517 54.1059 91.056ZM89.2879 90.806L89.4059 92.848H88.9619C88.5659 92.848 88.5269 92.797 88.6059 92.39C88.6549 92.138 88.7449 91.256 88.8059 90.431C88.9069 89.064 88.9989 88.569 89.1229 88.712C89.1479 88.741 89.2229 89.683 89.2879 90.806ZM136.266 90.89L136.365 92.848H135.93H135.496L135.608 91.306C135.843 88.066 136.116 87.894 136.266 90.89ZM9.82095 97.959C9.40995 98.37 9.72294 99.181 10.2939 99.181C10.8629 99.181 10.8769 99.165 10.8769 98.515C10.8769 97.864 10.2479 97.533 9.82095 97.959ZM67.7099 98.515C67.7099 99.165 67.7239 99.181 68.2939 99.181C68.8629 99.181 68.8769 99.165 68.8769 98.515C68.8769 97.864 68.8629 97.848 68.2939 97.848C67.7239 97.848 67.7099 97.864 67.7099 98.515ZM108.877 98.515C108.877 99.165 108.891 99.181 109.46 99.181C110.03 99.181 110.044 99.165 110.044 98.515C110.044 97.864 110.03 97.848 109.46 97.848C108.891 97.848 108.877 97.864 108.877 98.515ZM43.5439 99.463C42.6719 99.795 42.3359 101.015 43.1159 101.015C43.4349 101.015 43.5329 100.916 43.5739 100.556C43.6429 99.962 44.1089 99.944 44.1769 100.533C44.2089 100.803 44.0779 101.151 43.8309 101.45C43.2379 102.169 43.1499 102.515 43.5599 102.515C44.0559 102.515 45.1909 101.119 45.2039 100.491C45.2179 99.848 44.1949 99.214 43.5439 99.463ZM98.5639 100.181C99.1299 100.887 100.212 101.193 99.9769 100.583C99.9209 100.437 99.8299 100.137 99.7749 99.916C99.6859 99.56 99.5819 99.515 98.8509 99.515H98.0279L98.5639 100.181ZM12.7369 101.492C12.3179 102.889 13.1109 102.999 14.0949 101.681L14.7169 100.848H13.8229C12.9299 100.848 12.9299 100.848 12.7369 101.492ZM65.3099 101.586C64.7739 102.499 64.7749 102.515 65.3289 102.515C65.6189 102.515 65.9179 102.35 66.1619 102.056L66.5419 101.598L66.8899 102.056C67.1299 102.372 67.3889 102.515 67.7239 102.515C68.3019 102.515 68.2919 102.567 67.8829 101.612L67.5559 100.848H66.6489C65.7519 100.848 65.7369 100.857 65.3099 101.586ZM96.4759 101.586C95.9379 102.505 95.9379 102.515 96.5269 102.515C96.8899 102.515 97.0949 102.381 97.3489 101.981L97.6869 101.447L97.9899 101.98C98.2559 102.447 99.3769 102.815 99.3769 102.436C99.3769 100.841 97.2739 100.225 96.4759 101.586ZM129.976 101.586C129.438 102.505 129.438 102.515 130.03 102.515C130.365 102.515 130.624 102.372 130.863 102.056L131.21 101.598L131.558 102.056C131.882 102.484 132.876 102.735 132.877 102.39C132.883 100.829 130.764 100.242 129.976 101.586ZM15.8769 102.598V103.181H14.8769H13.8769V107.259C13.8769 111.191 13.8649 111.343 13.5369 111.518C12.5249 112.06 12.3809 111.431 12.3779 106.473L12.3769 103.181H11.2939H10.2099L10.2139 106.89C10.2199 112.386 10.6719 113.396 13.1269 113.396C15.5669 113.396 16.0439 112.498 16.0439 107.896C16.0439 104.733 16.0629 104.515 16.3479 104.515C16.9379 104.515 17.3769 103.817 17.3769 102.879V102.015H16.6269C15.8809 102.015 15.8769 102.018 15.8769 102.598ZM4.88895 103.307C2.97695 104.281 3.03694 106.788 5.01094 108.407C6.99094 110.03 7.40494 110.662 6.93194 111.337C6.39394 112.106 5.57595 111.66 5.42195 110.514L5.33095 109.833L4.39595 109.882L3.45995 109.931L3.46395 110.883C3.47095 112.515 4.44995 113.39 6.27095 113.39C8.30095 113.39 9.12695 112.596 9.12695 110.644V109.299L7.33495 107.611C5.38995 105.777 5.10394 105.208 5.93894 104.827C6.58894 104.531 7.04394 104.885 7.04394 105.687V106.348H8.14294H9.24194L9.12695 105.473C8.84895 103.361 6.81795 102.323 4.88895 103.307ZM18.5179 103.342C17.3069 104 17.2099 104.36 17.2099 108.218C17.2099 112.041 17.2959 112.358 18.5169 113.071C20.5299 114.247 22.8769 112.762 22.8769 110.313V109.348H21.7939H20.7099V110.328C20.7099 111.404 20.4879 111.744 19.8449 111.652L19.4599 111.598L19.4149 108.33C19.3649 104.709 19.4359 104.427 20.2989 104.82C20.6639 104.986 20.7099 105.111 20.7099 105.928V106.848H21.8129H22.9159L22.8469 105.766C22.7039 103.526 20.4759 102.277 18.5179 103.342ZM42.2739 103.245C40.9089 103.863 40.2359 107.436 40.7889 111.127C41.1529 113.555 44.8629 114.27 46.1269 112.156C46.6429 111.292 46.6349 104.939 46.1169 104.245C45.2809 103.126 43.5389 102.672 42.2739 103.245ZM58.1869 103.365C56.9689 104.09 56.8509 104.555 56.9089 108.388C56.9749 112.729 57.3629 113.413 59.7459 113.392C61.5409 113.375 62.5439 112.287 62.5439 110.355V109.348H61.4599H60.3769V110.328C60.3769 111.404 60.1549 111.744 59.5109 111.652L59.1269 111.598L59.0819 108.314C59.0389 105.165 59.0509 105.023 59.3739 104.85C60.0149 104.506 60.3769 104.898 60.3769 105.937V106.848H61.4599H62.5439V105.873C62.5439 103.63 60.1009 102.225 58.1869 103.365ZM64.9369 103.431C63.8469 104.085 63.7099 104.625 63.7139 108.226C63.7169 110.827 63.7619 111.363 64.0279 111.947C64.8699 113.803 67.8099 113.958 68.9889 112.208C69.7289 111.11 69.7779 105.453 69.0579 104.288C68.2729 103.017 66.3089 102.609 64.9369 103.431ZM79.6269 103.25C79.0139 103.522 78.4579 104.109 78.2209 104.734C77.9469 105.457 77.9879 111.396 78.2719 112.062C78.8919 113.517 80.6109 113.889 81.5409 112.768C81.7739 112.487 81.7929 112.492 81.8809 112.868C81.9619 113.214 82.0839 113.271 82.8419 113.315L83.7099 113.365V110.607V107.848H82.2939H80.8769V108.67C80.8769 109.395 80.9209 109.498 81.2519 109.545C81.6879 109.607 81.8949 111.008 81.5329 111.444C81.2499 111.786 80.5849 111.736 80.3829 111.359C80.0459 110.729 80.1629 105.443 80.5239 104.997C81.0519 104.345 81.7099 104.769 81.7099 105.761V106.515H82.7099H83.7099V105.556C83.7079 103.5 81.6629 102.345 79.6269 103.25ZM96.2129 103.323C94.9939 103.977 94.9599 104.107 94.9599 108.181C94.9599 111.624 94.9799 111.849 95.3109 112.294C96.4409 113.81 98.9789 113.81 100.11 112.295C100.604 111.632 100.74 105.395 100.281 104.429C99.6819 103.166 97.5749 102.593 96.2129 103.323ZM110.785 103.249C110.112 103.542 109.415 104.392 109.287 105.075C109.025 106.471 109.28 111.908 109.636 112.515C110.243 113.552 111.838 113.72 112.642 112.831L112.957 112.483L113.05 112.874C113.133 113.225 113.235 113.265 114.051 113.265H114.96L115.006 110.556L115.052 107.848H113.548H112.044V108.67C112.044 109.395 112.088 109.498 112.419 109.545C113.199 109.656 112.948 111.681 112.154 111.681C111.429 111.681 111.377 111.453 111.377 108.257C111.377 105.539 111.408 105.205 111.682 104.957C112.291 104.406 112.877 104.848 112.877 105.86V106.515H113.984H115.09L114.998 105.617C114.777 103.482 112.801 102.371 110.785 103.249ZM27.0439 108.181V113.181H28.1269H29.2099V111.702C29.2099 110.579 29.2719 110.171 29.4639 110.011C29.7969 109.735 29.7689 109.683 30.2969 111.556L30.7559 113.181H31.9109C33.0319 113.181 33.0629 113.17 32.9509 112.806C32.8869 112.6 32.4659 111.284 32.0139 109.882L31.1919 107.333L32.1179 105.324C32.6269 104.219 33.0439 103.285 33.0439 103.248C33.0439 103.211 32.5269 103.181 31.8949 103.181H30.7469L30.1189 104.973C29.2749 107.38 29.2099 107.392 29.2099 105.131V103.181H28.1269H27.0439V108.181ZM33.8769 108.181V113.181H34.9549H36.0339L36.0799 111.056L36.1269 108.931H36.7939H37.4599L37.5069 111.056L37.5539 113.181H38.6319H39.7099V108.181V103.181H38.6319H37.5549L37.5069 105.056L37.4599 106.931L36.7519 106.983L36.0439 107.034V105.108V103.181H34.9599H33.8769V108.181ZM47.5829 108.223L47.6269 113.265H50.1269H52.6269V112.348V111.431L51.2519 111.383L49.8769 111.335V110.175V109.015H51.0439H52.2099V108.098V107.181H51.0439H49.8769V106.098V105.015H51.2099H52.5439V104.098V103.181H50.0409H47.5389L47.5829 108.223ZM70.5439 108.265V113.348H71.5439H72.5439V110.441C72.5439 107.487 72.7029 106.73 73.0469 108.051C73.4289 109.517 74.4189 112.775 74.5679 113.056C74.6899 113.288 74.9429 113.348 75.7999 113.348H76.8769V108.265V103.181H75.8769H74.8769V106.015C74.8769 107.573 74.8209 108.847 74.7519 108.846C74.6829 108.845 74.2999 107.739 73.8999 106.388C72.8479 102.832 73.0859 103.181 71.7159 103.181H70.5439V108.265ZM88.0439 105.103C88.0439 106.658 87.9959 107.043 87.7939 107.121C87.6319 107.183 87.5439 107.441 87.5439 107.848C87.5439 108.255 87.6319 108.513 87.7939 108.575C87.9989 108.654 88.0439 109.075 88.0439 110.926V113.181H90.0849C93.5549 113.18 93.7099 112.965 93.7099 108.181C93.7099 103.397 93.5549 103.183 90.0849 103.182L88.0439 103.181V105.103ZM101.75 108.216L101.794 113.265L102.752 113.315L103.71 113.365L103.73 111.398C103.741 110.316 103.797 108.954 103.855 108.371L103.96 107.31L104.694 109.788C105.826 113.611 105.659 113.348 106.952 113.348H108.044V108.265V103.181H107.044H106.044V105.921C106.044 109.237 105.912 109.404 105.218 106.97C104.924 105.94 104.552 104.685 104.392 104.181L104.1 103.265L102.903 103.216L101.705 103.167L101.75 108.216ZM118.71 103.238C118.71 103.555 119.992 112.307 120.136 112.973C120.275 113.618 122.811 113.542 122.945 112.89C123.133 111.968 124.543 103.592 124.544 103.39C124.544 103.245 124.22 103.181 123.482 103.181H122.42L122.326 103.806C122.274 104.15 122.102 105.655 121.942 107.15C121.604 110.32 121.496 110.299 121.23 107.015C121.122 105.685 120.99 104.279 120.936 103.89L120.839 103.181H119.775C119.189 103.181 118.71 103.207 118.71 103.238ZM125.416 108.223L125.46 113.265H126.46H127.46L127.504 108.223L127.549 103.181H126.46H125.372L125.416 108.223ZM128.75 108.223L128.794 113.265L131.252 113.311L133.71 113.357V112.352V111.348H132.294H130.877V110.181V109.015H132.044H133.21V108.098V107.181H132.044H130.877V106.098V105.015H132.21H133.544V104.098V103.181H131.125H128.705L128.75 108.223ZM134.377 104.089V104.996L135.169 105.047L135.96 105.098L136.005 109.223L136.049 113.348H137.044H138.038L138.082 109.223L138.127 105.098L138.835 105.047L139.544 104.996V104.088V103.181H136.96H134.377V104.089ZM143.377 108.273V113.364L144.419 113.314L145.46 113.265L145.544 110.181L145.627 107.098L146.429 109.848C147.556 113.717 147.334 113.372 148.669 113.314L149.794 113.265L149.838 108.223L149.882 103.181H148.796H147.71L147.708 106.14C147.705 109.594 147.684 109.589 146.599 105.896L145.801 103.181H144.589H143.377V108.273ZM151.47 107.89C150.434 113.895 150.416 113.265 151.627 113.265H152.627L152.775 112.39L152.924 111.515H153.731C154.6 111.515 154.638 111.561 154.748 112.765C154.796 113.288 156.49 113.635 156.917 113.208C157.042 113.083 155.896 106.301 155.287 103.556C155.209 103.202 155.122 103.181 153.743 103.181H152.282L151.47 107.89ZM157.877 108.181V113.181H158.877H159.877V109.481C159.877 107.3 159.938 105.846 160.026 105.94C160.147 106.068 160.719 109.388 161.166 112.556C161.252 113.168 161.269 113.181 161.971 113.181C162.829 113.181 162.728 113.444 163.291 109.765C163.942 105.504 164.008 105.485 164.027 109.556L164.044 113.181H165.127H166.21V108.181V103.181H164.479H162.747L162.656 103.723C162.606 104.021 162.478 104.977 162.373 105.848C162.046 108.549 161.902 108.424 161.547 105.132L161.337 103.181H159.607H157.877V108.181ZM44.1149 104.943C44.3329 105.161 44.3769 105.692 44.3769 108.121C44.3769 111.235 44.2829 111.681 43.6269 111.681C42.9749 111.681 42.8769 111.231 42.8769 108.229C42.8769 104.899 43.2039 104.032 44.1149 104.943ZM67.0269 104.911C67.3709 105.325 67.1979 111.351 66.8349 111.579C66.0799 112.055 65.9639 111.636 65.9149 108.268C65.8679 105.039 65.9309 104.681 66.5439 104.681C66.7049 104.681 66.9219 104.785 67.0269 104.911ZM98.1769 104.881C98.3179 105.023 98.3769 105.995 98.3769 108.194C98.3769 111.543 98.3209 111.767 97.5109 111.652L97.1269 111.598L97.0819 108.369C97.0499 106.129 97.0949 105.071 97.2269 104.911C97.4619 104.628 97.9099 104.614 98.1769 104.881ZM91.2819 105.11C91.7859 105.614 91.6589 111.098 91.1349 111.441C90.3179 111.977 90.1319 111.749 90.0789 110.143C90.0309 108.71 90.0369 108.689 90.4539 108.585C91.0509 108.435 91.0919 107.235 90.5019 107.151C90.1609 107.103 90.1219 106.995 90.0779 105.973L90.0279 104.848H90.5239C90.7969 104.848 91.1379 104.966 91.2819 105.11ZM154.029 106.765C154.13 107.681 154.25 108.713 154.296 109.056C154.38 109.676 154.376 109.681 153.796 109.681C153.113 109.681 153.096 109.589 153.379 107.402C153.757 104.483 153.777 104.464 154.029 106.765ZM65.5439 115.098V115.848H66.5439H67.5439V115.098V114.348H66.5439H65.5439V115.098ZM130.076 115.056L130.127 115.765H131.127H132.127L132.178 115.056L132.229 114.348H131.127H130.025L130.076 115.056Z" fill="#231F20"/>
<path fill-rule="evenodd" clip-rule="evenodd" d="M319.832 0.360937C318.659 0.979937 317.638 2.89594 317.432 4.86594L317.33 5.84794H319.082H320.834L320.946 5.14794C321.095 4.21594 321.294 4.01494 322.069 4.01494C323.245 4.01494 323.155 4.67394 321.483 8.31094C319.918 11.7159 319.836 11.3479 322.163 11.3479H324.138L324.175 10.8899C324.214 10.4209 324.855 9.04594 326.043 6.88094C327.474 4.27194 326.685 1.58594 324.121 0.344937C323.156 -0.122063 320.731 -0.113063 319.832 0.360937ZM85.168 10.5559L81.576 14.2649L84.065 14.3109L86.554 14.3569L91.965 10.6679C94.942 8.63894 97.377 6.94894 97.377 6.91294C97.377 6.87694 95.438 6.84794 93.069 6.84794H88.761L85.168 10.5559ZM25.294 12.9539C17.011 13.6309 9.548 16.8649 6.081 21.2799C5.787 21.6549 5.395 22.1349 5.21 22.3479C1.673 26.4269 1.084 34.8659 3.969 40.1419C6.185 44.1939 12.645 48.3939 18.627 49.6699C18.994 49.7479 20.306 50.0769 21.544 50.4009C22.781 50.7239 24.956 51.2279 26.377 51.5189C36.586 53.6159 40.61 56.8389 36.839 59.8969C33.374 62.7069 22.835 62.3949 20.209 59.4039C19.271 58.3359 18.21 55.6319 18.21 54.3089C18.21 53.6789 18.008 53.6109 14.544 53.0929C12.94 52.8529 9.19 52.2499 6.21 51.7539C3.231 51.2569 0.615 50.8209 0.397 50.7849L0 50.7189L0.096 54.1589C0.246 59.5209 1.227 62.7829 3.722 66.2139C4.965 67.9219 8.561 71.3479 9.112 71.3479C9.175 71.3479 9.641 71.6129 10.149 71.9379C12.043 73.1499 16.972 75.1059 18.931 75.4229C19.222 75.4699 20.398 75.6609 21.544 75.8469C34.257 77.9119 47.075 74.5229 52.694 67.6119C58.989 59.8689 57.973 49.0229 50.384 42.9539C48.142 41.1609 43.118 38.8779 39.907 38.1929C39.111 38.0229 37.185 37.5719 35.627 37.1909C34.069 36.8089 32.229 36.3929 31.539 36.2659C28.969 35.7929 23.848 34.3269 22.044 33.5489C18.397 31.9759 20.404 28.0889 25.256 27.3269C31.113 26.4079 35.517 28.3549 36.476 32.2859C36.629 32.9159 36.838 33.5139 36.941 33.6149C37.118 33.7899 43.18 34.6799 46.544 35.0259C47.415 35.1149 49.608 35.3969 51.419 35.6529L54.71 36.1179V33.7749C54.707 24.6689 50.404 18.7379 41.166 15.1109C37.43 13.6439 29.699 12.5929 25.294 12.9539ZM138.051 13.6839C116.063 16.7759 105.345 43.4589 118.337 62.7649C129.664 79.5969 152.924 79.3429 164.022 62.2649C165.494 59.9999 167.148 56.5199 166.848 56.3169C166.726 56.2349 166.252 55.9749 165.794 55.7389C165.335 55.5029 163.948 54.7639 162.71 54.0969C156.105 50.5359 154.16 49.4989 154.026 49.4669C153.945 49.4469 153.631 49.9939 153.329 50.6809C147.469 64.0149 129.463 60.9319 127.532 46.2649C125.427 30.2759 145.832 23.1209 152.958 37.3479C153.21 37.8519 153.441 38.2909 153.47 38.3239C153.529 38.3889 153.447 38.4339 159.46 35.0199C161.752 33.7179 164.246 32.3039 165.001 31.8759C166.584 30.9799 166.514 31.1409 165.905 29.8029C161.125 19.2859 148.826 12.1689 138.051 13.6839ZM238.544 44.4309V75.0149H246.294H254.044V63.0149V51.0149H263.96H273.877V63.0149V75.0149H281.71H289.544V44.5149V14.0149H281.71H273.877V24.0979V34.1809H263.96H254.044V24.0149V13.8479H246.294H238.544V44.4309ZM59.488 20.5319C59.215 36.8239 59.156 53.5839 59.366 55.2649C61.182 69.8349 70.9 77.5379 86.004 76.3799C101.3 75.2079 108.899 65.7059 108.871 47.7889C108.867 45.0709 108.272 14.4989 108.218 14.2229C108.214 14.1999 104.68 14.1809 100.366 14.1809H92.521L92.552 34.6399C92.586 57.0179 92.617 56.2279 91.623 58.1889C90.385 60.6319 88.28 61.5399 83.877 61.5289C78.711 61.5159 76.791 60.1999 75.592 55.8479C75.311 54.8289 75.297 53.5689 75.356 34.4729L75.417 14.1809H69.356C66.022 14.1799 62.462 14.1319 61.446 14.0729L59.598 13.9669L59.488 20.5319ZM318.177 14.2699C298.844 16.9059 287.9 40.7209 297.299 59.7029C306.378 78.0379 329.897 81.2409 342.713 65.8869C360.629 44.4229 344.584 10.6679 318.177 14.2699ZM355.544 44.5979V75.1809H377.544H399.544V67.5979V60.0149H385.21H370.877V56.3479V52.6809H382.71H394.544V44.8479V37.0149H382.707H370.871L370.916 33.0559L370.96 29.0979L385.252 29.0549L399.544 29.0129V21.5139V14.0149H377.544H355.544V44.5979ZM110.377 16.5149V18.8479H111.218H112.059L111.952 19.4729C111.829 20.1909 111.351 20.6809 110.775 20.6809C110.383 20.6809 110.377 20.7059 110.377 22.2649C110.377 24.0919 110.34 24.0629 112.075 23.5759C114.156 22.9919 114.701 21.7369 114.833 17.2229L114.921 14.1809H112.649H110.377V16.5149ZM180.377 44.6809V75.1809H188.377H196.377V71.6679V68.1539L197.411 66.7089C197.979 65.9149 198.957 64.5599 199.583 63.6989C200.208 62.8379 200.783 62.0219 200.859 61.8859C201.109 61.4399 201.139 61.4719 209.627 70.9039L213.46 75.1629L220.21 75.1509C223.923 75.1439 228.926 75.0909 231.329 75.0349L235.697 74.9309L232.355 71.0979C230.517 68.9899 228.39 66.5519 227.628 65.6809C226.334 64.2029 221.769 58.9659 218.621 55.3479C217.863 54.4769 216.142 52.5059 214.796 50.9669L212.349 48.1699L213.172 46.8009C213.625 46.0469 214.667 44.3439 215.488 43.0149C216.308 41.6849 217.718 39.3979 218.62 37.9309C219.523 36.4649 221.464 33.3149 222.935 30.9309C224.405 28.5479 226.067 25.8479 226.628 24.9309C227.189 24.0149 228.76 21.4649 230.119 19.2649C231.478 17.0649 232.736 15.0209 232.916 14.7229L233.243 14.1809L223.102 14.1829L212.96 14.1849L211.89 15.8909C210.102 18.7409 208.208 21.7439 205.713 25.6809C204.406 27.7439 202.887 30.1439 202.336 31.0149C200.386 34.0989 199.737 35.1209 198.422 37.1809C197.69 38.3269 197.003 39.4329 196.895 39.6399C196.409 40.5669 196.377 39.7849 196.377 27.0979V14.1809H188.377H180.377V44.6809ZM324.679 30.3389C334.495 32.3649 338.957 45.3029 332.81 53.9179C325.014 64.8419 309.08 59.2589 308.588 45.4309C308.244 35.7239 315.913 28.5299 324.679 30.3389Z" fill="#1F5999"/>
</svg>
